BenchNine-Bold.ufo
<glyph name="exclam" format="1">
  <advance width="402"/>
  <unicode hex="0021"/>
  <outline>
    <contour>
      <point x="132" y="0" type="curve" smooth="yes"/>
      <point x="269" y="0" type="line" smooth="yes"/>
      <point x="284" y="0"/>
      <point x="295" y="8"/>
      <point x="295" y="51" type="curve" smooth="yes"/>
      <point x="295" y="203" type="line" smooth="yes"/>
      <point x="295" y="246"/>
      <point x="284" y="253"/>
      <point x="269" y="253" type="curve" smooth="yes"/>
      <point x="132" y="253" type="line" smooth="yes"/>
      <point x="117" y="253"/>
      <point x="105" y="246"/>
      <point x="105" y="203" type="curve" smooth="yes"/>
      <point x="105" y="51" type="line" smooth="yes"/>
      <point x="105" y="8"/>
      <point x="117" y="0"/>
    </contour>
    <contour>
      <point x="183" y="468" type="curve" smooth="yes"/>
      <point x="221" y="468" type="line" smooth="yes"/>
      <point x="236" y="468"/>
      <point x="241" y="499"/>
      <point x="243" y="541" type="curve" smooth="yes"/>
      <point x="286" y="1429" type="line" smooth="yes"/>
      <point x="289" y="1472"/>
      <point x="275" y="1502"/>
      <point x="260" y="1502" type="curve" smooth="yes"/>
      <point x="142" y="1502" type="line" smooth="yes"/>
      <point x="127" y="1502"/>
      <point x="114" y="1471"/>
      <point x="116" y="1428" type="curve" smooth="yes"/>
      <point x="160" y="541" type="line" smooth="yes"/>
      <point x="162" y="499"/>
      <point x="168" y="468"/>
    </contour>
  </outline>
</glyph>
<glyph name="percent" format="1">
  <advance width="1023"/>
  <unicode hex="0025"/>
  <outline>
    <contour>
      <point x="363" y="-82" type="curve" smooth="yes"/>
      <point x="404" y="-82" type="line" smooth="yes"/>
      <point x="420" y="-82"/>
      <point x="434" y="-54"/>
      <point x="440" y="-12" type="curve" smooth="yes"/>
      <point x="663" y="1466" type="line"/>
      <point x="669" y="1499"/>
      <point x="661" y="1536"/>
      <point x="649" y="1536" type="curve" smooth="yes"/>
      <point x="608" y="1536" type="line" smooth="yes"/>
      <point x="592" y="1536"/>
      <point x="577" y="1508"/>
      <point x="571" y="1466" type="curve" smooth="yes"/>
      <point x="347" y="-12" type="line" smooth="yes"/>
      <point x="342" y="-45"/>
      <point x="350" y="-82"/>
    </contour>
    <contour>
      <point x="194" y="739" type="curve" smooth="yes"/>
      <point x="135" y="739"/>
      <point x="111" y="851"/>
      <point x="111" y="1035" type="curve" smooth="yes"/>
      <point x="111" y="1223"/>
      <point x="135" y="1337"/>
      <point x="194" y="1337" type="curve" smooth="yes"/>
      <point x="252" y="1337"/>
      <point x="276" y="1223"/>
      <point x="276" y="1035" type="curve" smooth="yes"/>
      <point x="276" y="851"/>
      <point x="252" y="739"/>
    </contour>
    <contour>
      <point x="194" y="624" type="curve" smooth="yes"/>
      <point x="307" y="624"/>
      <point x="372" y="762"/>
      <point x="372" y="1039" type="curve" smooth="yes"/>
      <point x="372" y="1314"/>
      <point x="309" y="1452"/>
      <point x="194" y="1452" type="curve" smooth="yes"/>
      <point x="77" y="1452"/>
      <point x="14" y="1314"/>
      <point x="14" y="1039" type="curve" smooth="yes"/>
      <point x="14" y="762"/>
      <point x="79" y="624"/>
    </contour>
    <contour>
      <point x="817" y="115" type="curve" smooth="yes"/>
      <point x="759" y="115"/>
      <point x="734" y="227"/>
      <point x="734" y="411" type="curve" smooth="yes"/>
      <point x="734" y="599"/>
      <point x="758" y="713"/>
      <point x="817" y="713" type="curve" smooth="yes"/>
      <point x="875" y="713"/>
      <point x="899" y="599"/>
      <point x="899" y="411" type="curve" smooth="yes"/>
      <point x="899" y="227"/>
      <point x="875" y="115"/>
    </contour>
    <contour>
      <point x="817" y="0" type="curve" smooth="yes"/>
      <point x="931" y="0"/>
      <point x="996" y="138"/>
      <point x="996" y="415" type="curve" smooth="yes"/>
      <point x="996" y="690"/>
      <point x="933" y="828"/>
      <point x="817" y="828" type="curve" smooth="yes"/>
      <point x="700" y="828"/>
      <point x="637" y="690"/>
      <point x="637" y="415" type="curve" smooth="yes"/>
      <point x="637" y="138"/>
      <point x="702" y="0"/>
    </contour>
  </outline>
</glyph>
<glyph name="quotesingle" format="1">
  <advance width="363"/>
  <unicode hex="0027"/>
  <outline>
    <contour>
      <point x="169" y="729" type="curve" smooth="yes"/>
      <point x="195" y="729" type="line" smooth="yes"/>
      <point x="210" y="729"/>
      <point x="215" y="759"/>
      <point x="218" y="799" type="curve" smooth="yes"/>
      <point x="255" y="1428" type="line" smooth="yes"/>
      <point x="257" y="1467"/>
      <point x="246" y="1502"/>
      <point x="231" y="1502" type="curve" smooth="yes"/>
      <point x="133" y="1502" type="line" smooth="yes"/>
      <point x="118" y="1502"/>
      <point x="105" y="1468"/>
      <point x="108" y="1428" type="curve" smooth="yes"/>
      <point x="146" y="799" type="line" smooth="yes"/>
      <point x="148" y="759"/>
      <point x="155" y="729"/>
    </contour>
  </outline>
</glyph>
<glyph name="parenleft" format="1">
  <advance width="446"/>
  <unicode hex="0028"/>
  <outline>
    <contour>
      <point x="318" y="-143" type="curve" smooth="yes"/>
      <point x="331" y="-148"/>
      <point x="344" y="-111"/>
      <point x="344" y="-73" type="curve" smooth="yes"/>
      <point x="344" y="-2" type="line" smooth="yes"/>
      <point x="344" y="67"/>
      <point x="337" y="81"/>
      <point x="316" y="112" type="curve"/>
      <point x="270" y="178"/>
      <point x="240" y="379"/>
      <point x="240" y="698" type="curve" smooth="yes"/>
      <point x="240" y="1018"/>
      <point x="271" y="1220"/>
      <point x="315" y="1286" type="curve" smooth="yes"/>
      <point x="336" y="1317"/>
      <point x="344" y="1330"/>
      <point x="344" y="1399" type="curve" smooth="yes"/>
      <point x="344" y="1470" type="line" smooth="yes"/>
      <point x="344" y="1508"/>
      <point x="331" y="1545"/>
      <point x="318" y="1540" type="curve" smooth="yes"/>
      <point x="169" y="1485"/>
      <point x="104" y="1099"/>
      <point x="104" y="698" type="curve" smooth="yes"/>
      <point x="104" y="298"/>
      <point x="169" y="-89"/>
    </contour>
  </outline>
</glyph>
<glyph name="hyphen" format="1">
  <advance width="526"/>
  <unicode hex="002D"/>
  <outline>
    <contour>
      <point x="118" y="511" type="curve" smooth="yes"/>
      <point x="405" y="511" type="line" smooth="yes"/>
      <point x="419" y="511"/>
      <point x="430" y="519"/>
      <point x="430" y="562" type="curve" smooth="yes"/>
      <point x="430" y="647" type="line" smooth="yes"/>
      <point x="430" y="690"/>
      <point x="419" y="697"/>
      <point x="405" y="697" type="curve" smooth="yes"/>
      <point x="118" y="697" type="line" smooth="yes"/>
      <point x="102" y="697"/>
      <point x="92" y="690"/>
      <point x="92" y="647" type="curve" smooth="yes"/>
      <point x="92" y="562" type="line" smooth="yes"/>
      <point x="92" y="519"/>
      <point x="102" y="511"/>
    </contour>
  </outline>
</glyph>
<glyph name="seven" format="1">
  <advance width="602"/>
  <unicode hex="0037"/>
  <outline>
    <contour>
      <point x="211" y="0" type="curve" smooth="yes"/>
      <point x="352" y="0" type="line" smooth="yes"/>
      <point x="367" y="0"/>
      <point x="375" y="24"/>
      <point x="379" y="66" type="curve" smooth="yes"/>
      <point x="503" y="1373" type="line" smooth="yes"/>
      <point x="507" y="1415"/>
      <point x="495" y="1438"/>
      <point x="480" y="1438" type="curve" smooth="yes"/>
      <point x="120" y="1438" type="line" smooth="yes"/>
      <point x="105" y="1438"/>
      <point x="94" y="1429"/>
      <point x="94" y="1394" type="curve" smooth="yes"/>
      <point x="94" y="1283" type="line" smooth="yes"/>
      <point x="94" y="1246"/>
      <point x="105" y="1237"/>
      <point x="120" y="1237" type="curve" smooth="yes"/>
      <point x="283" y="1237" type="line" smooth="yes"/>
      <point x="290" y="1237"/>
      <point x="296" y="1226"/>
      <point x="294" y="1210" type="curve" smooth="yes"/>
      <point x="188" y="66" type="line" smooth="yes"/>
      <point x="184" y="24"/>
      <point x="196" y="0"/>
    </contour>
  </outline>
</glyph>
<glyph name="colon" format="1">
  <advance width="341"/>
  <unicode hex="003A"/>
  <outline>
    <contour>
      <point x="128" y="0" type="curve" smooth="yes"/>
      <point x="216" y="0" type="line" smooth="yes"/>
      <point x="231" y="0"/>
      <point x="243" y="21"/>
      <point x="243" y="64" type="curve" smooth="yes"/>
      <point x="243" y="268" type="line" smooth="yes"/>
      <point x="243" y="311"/>
      <point x="231" y="332"/>
      <point x="216" y="332" type="curve" smooth="yes"/>
      <point x="128" y="332" type="line" smooth="yes"/>
      <point x="113" y="332"/>
      <point x="101" y="311"/>
      <point x="101" y="268" type="curve" smooth="yes"/>
      <point x="101" y="64" type="line" smooth="yes"/>
      <point x="101" y="21"/>
      <point x="113" y="0"/>
    </contour>
    <contour>
      <point x="128" y="690" type="curve" smooth="yes"/>
      <point x="216" y="690" type="line" smooth="yes"/>
      <point x="231" y="690"/>
      <point x="243" y="711"/>
      <point x="243" y="754" type="curve" smooth="yes"/>
      <point x="243" y="958" type="line" smooth="yes"/>
      <point x="243" y="1001"/>
      <point x="231" y="1022"/>
      <point x="216" y="1022" type="curve" smooth="yes"/>
      <point x="128" y="1022" type="line" smooth="yes"/>
      <point x="113" y="1022"/>
      <point x="101" y="1001"/>
      <point x="101" y="958" type="curve" smooth="yes"/>
      <point x="101" y="754" type="line" smooth="yes"/>
      <point x="101" y="711"/>
      <point x="113" y="690"/>
    </contour>
  </outline>
</glyph>
<glyph name="semicolon" format="1">
  <advance width="351"/>
  <unicode hex="003B"/>
  <outline>
    <contour>
      <point x="126" y="-328" type="curve" smooth="yes"/>
      <point x="174" y="-305"/>
      <point x="269" y="-188"/>
      <point x="269" y="50" type="curve" smooth="yes"/>
      <point x="269" y="244" type="line" smooth="yes"/>
      <point x="269" y="287"/>
      <point x="257" y="308"/>
      <point x="243" y="308" type="curve" smooth="yes"/>
      <point x="123" y="308" type="line" smooth="yes"/>
      <point x="108" y="308"/>
      <point x="102" y="291"/>
      <point x="102" y="248" type="curve" smooth="yes"/>
      <point x="102" y="57" type="line" smooth="yes"/>
      <point x="102" y="19"/>
      <point x="109" y="0"/>
      <point x="123" y="0" type="curve" smooth="yes"/>
      <point x="166" y="0" type="line" smooth="yes"/>
      <point x="171" y="0"/>
      <point x="172" y="-11"/>
      <point x="172" y="-27" type="curve" smooth="yes"/>
      <point x="172" y="-77"/>
      <point x="156" y="-153"/>
      <point x="125" y="-191" type="curve" smooth="yes"/>
      <point x="105" y="-214"/>
      <point x="102" y="-212"/>
      <point x="102" y="-266" type="curve" smooth="yes"/>
      <point x="102" y="-283" type="line" smooth="yes"/>
      <point x="102" y="-319"/>
      <point x="114" y="-334"/>
    </contour>
    <contour>
      <point x="131" y="690" type="curve" smooth="yes"/>
      <point x="236" y="690" type="line" smooth="yes"/>
      <point x="251" y="690"/>
      <point x="262" y="711"/>
      <point x="262" y="754" type="curve" smooth="yes"/>
      <point x="262" y="958" type="line" smooth="yes"/>
      <point x="262" y="1001"/>
      <point x="251" y="1022"/>
      <point x="236" y="1022" type="curve" smooth="yes"/>
      <point x="131" y="1022" type="line" smooth="yes"/>
      <point x="116" y="1022"/>
      <point x="104" y="1001"/>
      <point x="104" y="958" type="curve" smooth="yes"/>
      <point x="104" y="754" type="line" smooth="yes"/>
      <point x="104" y="711"/>
      <point x="116" y="690"/>
    </contour>
  </outline>
</glyph>
<glyph name="E" format="1">
  <advance width="752"/>
  <unicode hex="0045"/>
  <outline>
    <contour>
      <point x="141" y="0" type="curve" smooth="yes"/>
      <point x="670" y="0" type="line" smooth="yes"/>
      <point x="685" y="0"/>
      <point x="696" y="3"/>
      <point x="696" y="40" type="curve" smooth="yes"/>
      <point x="696" y="119" type="line" smooth="yes"/>
      <point x="696" y="156"/>
      <point x="685" y="159"/>
      <point x="670" y="159" type="curve" smooth="yes"/>
      <point x="313" y="159" type="line"/>
      <point x="313" y="616" type="line"/>
      <point x="313" y="629"/>
      <point x="319" y="646"/>
      <point x="324" y="646" type="curve"/>
      <point x="598" y="646" type="line" smooth="yes"/>
      <point x="613" y="646"/>
      <point x="623" y="655"/>
      <point x="623" y="692" type="curve" smooth="yes"/>
      <point x="623" y="769" type="line" smooth="yes"/>
      <point x="623" y="806"/>
      <point x="613" y="815"/>
      <point x="598" y="815" type="curve" smooth="yes"/>
      <point x="323" y="815" type="line"/>
      <point x="319" y="815"/>
      <point x="313" y="829"/>
      <point x="313" y="842" type="curve"/>
      <point x="313" y="1246" type="line" smooth="yes"/>
      <point x="313" y="1266"/>
      <point x="318" y="1279"/>
      <point x="325" y="1279" type="curve" smooth="yes"/>
      <point x="667" y="1279" type="line" smooth="yes"/>
      <point x="681" y="1279"/>
      <point x="692" y="1282"/>
      <point x="692" y="1319" type="curve" smooth="yes"/>
      <point x="692" y="1398" type="line" smooth="yes"/>
      <point x="692" y="1435"/>
      <point x="681" y="1438"/>
      <point x="667" y="1438" type="curve" smooth="yes"/>
      <point x="141" y="1438" type="line" smooth="yes"/>
      <point x="126" y="1438"/>
      <point x="116" y="1434"/>
      <point x="116" y="1396" type="curve" smooth="yes"/>
      <point x="116" y="42" type="line" smooth="yes"/>
      <point x="116" y="3"/>
      <point x="126" y="0"/>
    </contour>
    <contour>
      <point x="376" y="1438" type="move" name="top"/>
    </contour>
    <contour>
      <point x="677" y="10" type="move" name="ogonek"/>
    </contour>
    <contour>
      <point x="376" y="0" type="move" name="bottom"/>
    </contour>
  </outline>
</glyph>
<glyph name="F" format="1">
  <advance width="684"/>
  <unicode hex="0046"/>
  <outline>
    <contour>
      <point x="141" y="0" type="curve" smooth="yes"/>
      <point x="288" y="0" type="line" smooth="yes"/>
      <point x="303" y="0"/>
      <point x="313" y="3"/>
      <point x="313" y="42" type="curve" smooth="yes"/>
      <point x="313" y="598" type="line"/>
      <point x="313" y="611"/>
      <point x="319" y="623"/>
      <point x="324" y="623" type="curve"/>
      <point x="573" y="623" type="line" smooth="yes"/>
      <point x="588" y="623"/>
      <point x="598" y="626"/>
      <point x="598" y="663" type="curve" smooth="yes"/>
      <point x="598" y="753" type="line" smooth="yes"/>
      <point x="598" y="789"/>
      <point x="588" y="792"/>
      <point x="573" y="792" type="curve" smooth="yes"/>
      <point x="323" y="792" type="line"/>
      <point x="319" y="792"/>
      <point x="313" y="799"/>
      <point x="313" y="812" type="curve"/>
      <point x="313" y="1253" type="line" smooth="yes"/>
      <point x="313" y="1273"/>
      <point x="318" y="1279"/>
      <point x="325" y="1279" type="curve" smooth="yes"/>
      <point x="632" y="1279" type="line" smooth="yes"/>
      <point x="647" y="1279"/>
      <point x="657" y="1282"/>
      <point x="657" y="1319" type="curve" smooth="yes"/>
      <point x="657" y="1398" type="line" smooth="yes"/>
      <point x="657" y="1435"/>
      <point x="647" y="1438"/>
      <point x="632" y="1438" type="curve" smooth="yes"/>
      <point x="141" y="1438" type="line" smooth="yes"/>
      <point x="126" y="1438"/>
      <point x="116" y="1433"/>
      <point x="116" y="1396" type="curve" smooth="yes"/>
      <point x="116" y="42" type="line" smooth="yes"/>
      <point x="116" y="3"/>
      <point x="126" y="0"/>
    </contour>
  </outline>
</glyph>
<glyph name="H" format="1">
  <advance width="947"/>
  <unicode hex="0048"/>
  <outline>
    <contour>
      <point x="142" y="0" type="curve" smooth="yes"/>
      <point x="289" y="0" type="line" smooth="yes"/>
      <point x="304" y="0"/>
      <point x="315" y="4"/>
      <point x="315" y="47" type="curve" smooth="yes"/>
      <point x="315" y="658" type="line"/>
      <point x="315" y="671"/>
      <point x="320" y="679"/>
      <point x="325" y="679" type="curve"/>
      <point x="622" y="679" type="line"/>
      <point x="627" y="679"/>
      <point x="633" y="671"/>
      <point x="633" y="658" type="curve"/>
      <point x="633" y="47" type="line" smooth="yes"/>
      <point x="633" y="4"/>
      <point x="645" y="0"/>
      <point x="660" y="0" type="curve" smooth="yes"/>
      <point x="807" y="0" type="line" smooth="yes"/>
      <point x="822" y="0"/>
      <point x="832" y="4"/>
      <point x="832" y="47" type="curve" smooth="yes"/>
      <point x="832" y="1391" type="line" smooth="yes"/>
      <point x="832" y="1434"/>
      <point x="822" y="1438"/>
      <point x="807" y="1438" type="curve" smooth="yes"/>
      <point x="660" y="1438" type="line" smooth="yes"/>
      <point x="645" y="1438"/>
      <point x="634" y="1434"/>
      <point x="634" y="1391" type="curve" smooth="yes"/>
      <point x="634" y="860" type="line"/>
      <point x="634" y="847"/>
      <point x="627" y="836"/>
      <point x="623" y="836" type="curve"/>
      <point x="323" y="836" type="line"/>
      <point x="319" y="836"/>
      <point x="313" y="846"/>
      <point x="313" y="859" type="curve"/>
      <point x="313" y="1391" type="line" smooth="yes"/>
      <point x="313" y="1434"/>
      <point x="303" y="1438"/>
      <point x="287" y="1438" type="curve" smooth="yes"/>
      <point x="142" y="1438" type="line" smooth="yes"/>
      <point x="126" y="1438"/>
      <point x="116" y="1434"/>
      <point x="116" y="1391" type="curve" smooth="yes"/>
      <point x="116" y="47" type="line" smooth="yes"/>
      <point x="116" y="4"/>
      <point x="126" y="0"/>
    </contour>
    <contour>
      <point x="474" y="1438" type="move" name="top"/>
    </contour>
    <contour>
      <point x="474" y="719" type="move" name="center"/>
    </contour>
  </outline>
</glyph>
<glyph name="M" format="1">
  <advance width="1082"/>
  <unicode hex="004D"/>
  <outline>
    <contour>
      <point x="121" y="0" type="curve" smooth="yes"/>
      <point x="234" y="0" type="line" smooth="yes"/>
      <point x="248" y="0"/>
      <point x="257" y="11"/>
      <point x="257" y="54" type="curve" smooth="yes"/>
      <point x="289" y="1036" type="line"/>
      <point x="289" y="1042"/>
      <point x="293" y="1046"/>
      <point x="294" y="1040" type="curve"/>
      <point x="471" y="48" type="line"/>
      <point x="479" y="11"/>
      <point x="492" y="0"/>
      <point x="505" y="0" type="curve" smooth="yes"/>
      <point x="507" y="0"/>
      <point x="568" y="0"/>
      <point x="570" y="0" type="curve" smooth="yes"/>
      <point x="584" y="0"/>
      <point x="597" y="11"/>
      <point x="604" y="48" type="curve"/>
      <point x="786" y="1045" type="line"/>
      <point x="788" y="1051"/>
      <point x="793" y="1048"/>
      <point x="793" y="1041" type="curve"/>
      <point x="824" y="54" type="line" smooth="yes"/>
      <point x="825" y="11"/>
      <point x="835" y="0"/>
      <point x="850" y="0" type="curve" smooth="yes"/>
      <point x="960" y="0" type="line" smooth="yes"/>
      <point x="976" y="0"/>
      <point x="986" y="11"/>
      <point x="985" y="54" type="curve" smooth="yes"/>
      <point x="938" y="1381" type="line" smooth="yes"/>
      <point x="938" y="1424"/>
      <point x="928" y="1437"/>
      <point x="914" y="1438" type="curve"/>
      <point x="754" y="1438" type="line"/>
      <point x="738" y="1437"/>
      <point x="723" y="1428"/>
      <point x="715" y="1388" type="curve"/>
      <point x="545" y="545" type="line"/>
      <point x="544" y="536"/>
      <point x="536" y="536"/>
      <point x="534" y="545" type="curve"/>
      <point x="365" y="1391" type="line"/>
      <point x="357" y="1432"/>
      <point x="341" y="1437"/>
      <point x="325" y="1438" type="curve"/>
      <point x="167" y="1438" type="line"/>
      <point x="152" y="1437"/>
      <point x="143" y="1424"/>
      <point x="142" y="1381" type="curve" smooth="yes"/>
      <point x="97" y="54" type="line" smooth="yes"/>
      <point x="96" y="11"/>
      <point x="107" y="0"/>
    </contour>
  </outline>
</glyph>
<glyph name="S" format="1">
  <advance width="776"/>
  <unicode hex="0053"/>
  <outline>
    <contour>
      <point x="381" y="-15" type="curve" smooth="yes"/>
      <point x="594" y="-15"/>
      <point x="724" y="161"/>
      <point x="724" y="400" type="curve" smooth="yes"/>
      <point x="724" y="599"/>
      <point x="630" y="711"/>
      <point x="523" y="780" type="curve" smooth="yes"/>
      <point x="396" y="862" type="line" smooth="yes"/>
      <point x="319" y="911"/>
      <point x="257" y="970"/>
      <point x="257" y="1084" type="curve" smooth="yes"/>
      <point x="257" y="1191"/>
      <point x="315" y="1283"/>
      <point x="407" y="1285" type="curve" smooth="yes"/>
      <point x="488" y="1286"/>
      <point x="563" y="1248"/>
      <point x="622" y="1177" type="curve" smooth="yes"/>
      <point x="643" y="1150"/>
      <point x="740" y="1263"/>
      <point x="700" y="1317" type="curve"/>
      <point x="619" y="1423"/>
      <point x="509" y="1456"/>
      <point x="398" y="1454" type="curve" smooth="yes"/>
      <point x="207" y="1452"/>
      <point x="85" y="1282"/>
      <point x="85" y="1050" type="curve" smooth="yes"/>
      <point x="85" y="857"/>
      <point x="177" y="760"/>
      <point x="277" y="693" type="curve"/>
      <point x="405" y="607" type="line" smooth="yes"/>
      <point x="491" y="551"/>
      <point x="547" y="491"/>
      <point x="547" y="371" type="curve" smooth="yes"/>
      <point x="547" y="251"/>
      <point x="488" y="157"/>
      <point x="381" y="157" type="curve" smooth="yes"/>
      <point x="293" y="157"/>
      <point x="213" y="209"/>
      <point x="142" y="300" type="curve"/>
      <point x="104" y="343"/>
      <point x="18" y="212"/>
      <point x="47" y="168" type="curve" smooth="yes"/>
      <point x="135" y="36"/>
      <point x="255" y="-15"/>
    </contour>
    <contour>
      <point x="389" y="1438" type="move" name="top"/>
    </contour>
    <contour>
      <point x="389" y="0" type="move" name="bottom"/>
    </contour>
  </outline>
</glyph>
<glyph name="U" format="1">
  <advance width="953"/>
  <unicode hex="0055"/>
  <outline>
    <contour>
      <point x="480" y="-15" type="curve" smooth="yes"/>
      <point x="696" y="-15"/>
      <point x="852" y="33"/>
      <point x="852" y="583" type="curve" smooth="yes"/>
      <point x="852" y="1391" type="line" smooth="yes"/>
      <point x="852" y="1434"/>
      <point x="842" y="1438"/>
      <point x="828" y="1438" type="curve" smooth="yes"/>
      <point x="680" y="1438" type="line" smooth="yes"/>
      <point x="665" y="1438"/>
      <point x="655" y="1434"/>
      <point x="655" y="1391" type="curve" smooth="yes"/>
      <point x="655" y="589" type="line" smooth="yes"/>
      <point x="655" y="181"/>
      <point x="606" y="145"/>
      <point x="479" y="145" type="curve" smooth="yes"/>
      <point x="353" y="145"/>
      <point x="298" y="193"/>
      <point x="298" y="589" type="curve" smooth="yes"/>
      <point x="298" y="1391" type="line" smooth="yes"/>
      <point x="298" y="1434"/>
      <point x="287" y="1438"/>
      <point x="273" y="1438" type="curve" smooth="yes"/>
      <point x="126" y="1438" type="line" smooth="yes"/>
      <point x="111" y="1438"/>
      <point x="100" y="1434"/>
      <point x="100" y="1391" type="curve" smooth="yes"/>
      <point x="100" y="583" type="line" smooth="yes"/>
      <point x="100" y="40"/>
      <point x="254" y="-15"/>
    </contour>
    <contour>
      <point x="476" y="1438" type="move" name="top"/>
    </contour>
    <contour>
      <point x="858" y="10" type="move" name="ogonek"/>
    </contour>
  </outline>
</glyph>
<glyph name="Y" format="1">
  <advance width="732"/>
  <unicode hex="0059"/>
  <outline>
    <contour>
      <point x="295" y="0" type="curve" smooth="yes"/>
      <point x="443" y="0" type="line" smooth="yes"/>
      <point x="457" y="0"/>
      <point x="468" y="8"/>
      <point x="468" y="51" type="curve" smooth="yes"/>
      <point x="468" y="481" type="line"/>
      <point x="696" y="1378" type="line"/>
      <point x="699" y="1389"/>
      <point x="700" y="1397"/>
      <point x="700" y="1406" type="curve" smooth="yes"/>
      <point x="700" y="1423"/>
      <point x="694" y="1438"/>
      <point x="684" y="1438" type="curve" smooth="yes"/>
      <point x="559" y="1438" type="line" smooth="yes"/>
      <point x="544" y="1438"/>
      <point x="527" y="1417"/>
      <point x="519" y="1384" type="curve" smooth="yes"/>
      <point x="381" y="820" type="line"/>
      <point x="240" y="1385" type="line" smooth="yes"/>
      <point x="231" y="1420"/>
      <point x="214" y="1438"/>
      <point x="198" y="1438" type="curve" smooth="yes"/>
      <point x="50" y="1438" type="line" smooth="yes"/>
      <point x="40" y="1438"/>
      <point x="34" y="1424"/>
      <point x="34" y="1407" type="curve" smooth="yes"/>
      <point x="34" y="1398"/>
      <point x="35" y="1390"/>
      <point x="39" y="1378" type="curve"/>
      <point x="270" y="478" type="line"/>
      <point x="270" y="51" type="line" smooth="yes"/>
      <point x="270" y="8"/>
      <point x="280" y="0"/>
    </contour>
    <contour>
      <point x="366" y="1438" type="move" name="top"/>
    </contour>
  </outline>
</glyph>
<glyph name="backslash" format="1">
  <advance width="581"/>
  <unicode hex="005C"/>
  <outline>
    <contour>
      <point x="345" y="-206" type="curve" smooth="yes"/>
      <point x="484" y="-205" type="line" smooth="yes"/>
      <point x="489" y="-205"/>
      <point x="494" y="-187"/>
      <point x="491" y="-170" type="curve" smooth="yes"/>
      <point x="257" y="1612" type="line" smooth="yes"/>
      <point x="255" y="1633"/>
      <point x="248" y="1647"/>
      <point x="241" y="1647" type="curve" smooth="yes"/>
      <point x="102" y="1647" type="line" smooth="yes"/>
      <point x="96" y="1647"/>
      <point x="92" y="1629"/>
      <point x="94" y="1612" type="curve" smooth="yes"/>
      <point x="329" y="-171" type="line" smooth="yes"/>
      <point x="332" y="-192"/>
      <point x="338" y="-206"/>
    </contour>
  </outline>
</glyph>
<glyph name="v" format="1">
  <advance width="663"/>
  <unicode hex="0076"/>
  <outline>
    <contour>
      <point x="257" y="0" type="curve" smooth="yes"/>
      <point x="399" y="0" type="line" smooth="yes"/>
      <point x="415" y="0"/>
      <point x="429" y="27"/>
      <point x="437" y="67" type="curve" smooth="yes"/>
      <point x="605" y="943" type="line" smooth="yes"/>
      <point x="607" y="954"/>
      <point x="609" y="964"/>
      <point x="609" y="972" type="curve" smooth="yes"/>
      <point x="609" y="993"/>
      <point x="603" y="1006"/>
      <point x="594" y="1006" type="curve" smooth="yes"/>
      <point x="482" y="1006" type="line" smooth="yes"/>
      <point x="466" y="1006"/>
      <point x="452" y="988"/>
      <point x="446" y="946" type="curve" smooth="yes"/>
      <point x="343" y="265" type="line" smooth="yes"/>
      <point x="342" y="258"/>
      <point x="341" y="255"/>
      <point x="339" y="255" type="curve" smooth="yes"/>
      <point x="337" y="255"/>
      <point x="335" y="258"/>
      <point x="334" y="265" type="curve" smooth="yes"/>
      <point x="233" y="946" type="line" smooth="yes"/>
      <point x="226" y="987"/>
      <point x="215" y="1006"/>
      <point x="199" y="1006" type="curve" smooth="yes"/>
      <point x="70" y="1006" type="line" smooth="yes"/>
      <point x="60" y="1006"/>
      <point x="55" y="992"/>
      <point x="55" y="970" type="curve" smooth="yes"/>
      <point x="55" y="961"/>
      <point x="55" y="952"/>
      <point x="57" y="942" type="curve" smooth="yes"/>
      <point x="220" y="68" type="line" smooth="yes"/>
      <point x="228" y="27"/>
      <point x="242" y="0"/>
    </contour>
  </outline>
</glyph>
<glyph name="guillemotleft" format="1">
  <advance width="829"/>
  <unicode hex="00AB"/>
  <outline>
    <contour>
      <point x="396" y="218" type="curve" smooth="yes"/>
      <point x="399" y="216"/>
      <point x="402" y="217"/>
      <point x="404" y="226" type="curve" smooth="yes"/>
      <point x="408" y="226"/>
      <point x="413" y="248"/>
      <point x="413" y="265" type="curve" smooth="yes"/>
      <point x="413" y="280"/>
      <point x="412" y="383"/>
      <point x="405" y="390" type="curve" smooth="yes"/>
      <point x="405" y="420"/>
      <point x="316" y="530"/>
      <point x="306" y="543" type="curve" smooth="yes"/>
      <point x="305" y="544"/>
      <point x="193" y="648"/>
      <point x="193" y="650" type="curve" smooth="yes"/>
      <point x="191" y="653"/>
      <point x="190" y="660"/>
      <point x="191" y="664" type="curve" smooth="yes"/>
      <point x="191" y="668"/>
      <point x="275" y="763"/>
      <point x="277" y="764" type="curve" smooth="yes"/>
      <point x="284" y="772"/>
      <point x="398" y="873"/>
      <point x="398" y="888" type="curve" smooth="yes"/>
      <point x="407" y="901"/>
      <point x="413" y="934"/>
      <point x="413" y="964" type="curve" smooth="yes"/>
      <point x="413" y="974"/>
      <point x="412" y="1071"/>
      <point x="410" y="1071" type="curve" smooth="yes"/>
      <point x="408" y="1088"/>
      <point x="402" y="1100"/>
      <point x="395" y="1098" type="curve" smooth="yes"/>
      <point x="393" y="1098"/>
      <point x="296" y="995"/>
      <point x="294" y="993" type="curve" smooth="yes"/>
      <point x="285" y="984"/>
      <point x="105" y="803"/>
      <point x="105" y="795" type="curve" smooth="yes"/>
      <point x="92" y="783"/>
      <point x="90" y="733"/>
      <point x="90" y="702" type="curve" smooth="yes"/>
      <point x="90" y="695"/>
      <point x="91" y="583"/>
      <point x="98" y="575" type="curve" smooth="yes"/>
      <point x="98" y="545"/>
      <point x="198" y="420"/>
      <point x="210" y="408" type="curve" smooth="yes"/>
      <point x="212" y="406"/>
      <point x="394" y="218"/>
    </contour>
    <contour>
      <point x="736" y="218" type="curve" smooth="yes"/>
      <point x="740" y="216"/>
      <point x="743" y="217"/>
      <point x="744" y="226" type="curve" smooth="yes"/>
      <point x="749" y="226"/>
      <point x="754" y="248"/>
      <point x="754" y="265" type="curve" smooth="yes"/>
      <point x="754" y="280"/>
      <point x="753" y="383"/>
      <point x="746" y="390" type="curve" smooth="yes"/>
      <point x="746" y="420"/>
      <point x="656" y="530"/>
      <point x="647" y="543" type="curve" smooth="yes"/>
      <point x="646" y="544"/>
      <point x="533" y="648"/>
      <point x="533" y="650" type="curve" smooth="yes"/>
      <point x="531" y="653"/>
      <point x="531" y="660"/>
      <point x="532" y="664" type="curve" smooth="yes"/>
      <point x="532" y="668"/>
      <point x="616" y="763"/>
      <point x="618" y="764" type="curve" smooth="yes"/>
      <point x="625" y="772"/>
      <point x="738" y="873"/>
      <point x="738" y="888" type="curve" smooth="yes"/>
      <point x="747" y="901"/>
      <point x="754" y="934"/>
      <point x="754" y="964" type="curve" smooth="yes"/>
      <point x="754" y="974"/>
      <point x="753" y="1071"/>
      <point x="750" y="1071" type="curve" smooth="yes"/>
      <point x="749" y="1088"/>
      <point x="742" y="1100"/>
      <point x="735" y="1098" type="curve" smooth="yes"/>
      <point x="734" y="1098"/>
      <point x="637" y="995"/>
      <point x="634" y="993" type="curve" smooth="yes"/>
      <point x="626" y="984"/>
      <point x="445" y="803"/>
      <point x="445" y="795" type="curve" smooth="yes"/>
      <point x="433" y="783"/>
      <point x="430" y="733"/>
      <point x="430" y="702" type="curve" smooth="yes"/>
      <point x="430" y="695"/>
      <point x="431" y="583"/>
      <point x="439" y="575" type="curve" smooth="yes"/>
      <point x="439" y="545"/>
      <point x="538" y="420"/>
      <point x="550" y="408" type="curve" smooth="yes"/>
      <point x="552" y="406"/>
      <point x="735" y="218"/>
    </contour>
  </outline>
</glyph>
<glyph name="oslash" format="1">
  <advance width="768"/>
  <unicode hex="00F8"/>
  <outline>
    <contour>
      <point x="177" y="-84" type="line"/>
      <point x="181" y="-85"/>
      <point x="187" y="-78"/>
      <point x="191" y="-65" type="curve"/>
      <point x="647" y="1053" type="line" smooth="yes"/>
      <point x="652" y="1062"/>
      <point x="653" y="1075"/>
      <point x="650" y="1075" type="curve"/>
      <point x="605" y="1090" type="line" smooth="yes"/>
      <point x="602" y="1091"/>
      <point x="596" y="1083"/>
      <point x="590" y="1071" type="curve" smooth="yes"/>
      <point x="135" y="-46" type="line"/>
      <point x="132" y="-56"/>
      <point x="130" y="-67"/>
      <point x="132" y="-68" type="curve" smooth="yes"/>
    </contour>
    <component base="o"/>
    <contour>
      <point x="410" y="1006" type="move" name="top"/>
    </contour>
  </outline>
</glyph>
<glyph name="integral" format="1">
  <advance width="526"/>
  <unicode hex="222B"/>
  <outline>
    <contour>
      <point x="1" y="-139" type="curve" smooth="yes"/>
      <point x="9" y="-139"/>
      <point x="21" y="-139"/>
      <point x="31" y="-139" type="curve" smooth="yes"/>
      <point x="167" y="-139"/>
      <point x="270" y="-35"/>
      <point x="295" y="260" type="curve" smooth="yes"/>
      <point x="360" y="1065" type="line" smooth="yes"/>
      <point x="373" y="1226"/>
      <point x="409" y="1272"/>
      <point x="478" y="1272" type="curve" smooth="yes"/>
      <point x="505" y="1272" type="line" smooth="yes"/>
      <point x="515" y="1272"/>
      <point x="519" y="1284"/>
      <point x="522" y="1312" type="curve" smooth="yes"/>
      <point x="523" y="1315"/>
      <point x="528" y="1373"/>
      <point x="528" y="1377" type="curve" smooth="yes"/>
      <point x="528" y="1394"/>
      <point x="493" y="1407"/>
      <point x="448" y="1407" type="curve" smooth="yes"/>
      <point x="312" y="1407"/>
      <point x="218" y="1333"/>
      <point x="189" y="1008" type="curve" smooth="yes"/>
      <point x="120" y="200" type="line" smooth="yes"/>
      <point x="106" y="33"/>
      <point x="71" y="-7"/>
      <point x="1" y="-7" type="curve" smooth="yes"/>
      <point x="-15" y="-7" type="line" smooth="yes"/>
      <point x="-26" y="-7"/>
      <point x="-29" y="-18"/>
      <point x="-32" y="-46" type="curve" smooth="yes"/>
      <point x="-33" y="-49"/>
      <point x="-38" y="-100"/>
      <point x="-38" y="-105" type="curve" smooth="yes"/>
      <point x="-38" y="-136"/>
      <point x="-25" y="-139"/>
    </contour>
  </outline>
</glyph>
